<mxfile host="app.diagrams.net" modified="2024-02-05T06:02:42.835Z" agent="Mozilla/5.0 (Windows NT 10.0; Win64; x64) AppleWebKit/537.36 (KHTML, like Gecko) Chrome/121.0.0.0 Safari/537.36 Edg/121.0.0.0" etag="Tdm4_wtDOQdQpHLD531x" version="23.1.0" type="github">
  <diagram name="페이지-1" id="52v8Tvpr8Vl3Tg8hxjAr">
    <mxGraphModel dx="1426" dy="785" grid="1" gridSize="10" guides="1" tooltips="1" connect="1" arrows="1" fold="1" page="1" pageScale="1" pageWidth="827" pageHeight="1169" math="0" shadow="0">
      <root>
        <mxCell id="0" />
        <mxCell id="1" parent="0" />
        <mxCell id="tnVQdqbwVG9CSOU1aEH5-1" value="" style="whiteSpace=wrap;html=1;aspect=fixed;" vertex="1" parent="1">
          <mxGeometry x="134" y="140" width="560" height="560" as="geometry" />
        </mxCell>
        <mxCell id="tnVQdqbwVG9CSOU1aEH5-2" value="로컬PC" style="text;html=1;strokeColor=none;fillColor=none;align=center;verticalAlign=middle;whiteSpace=wrap;rounded=0;" vertex="1" parent="1">
          <mxGeometry x="140" y="110" width="60" height="30" as="geometry" />
        </mxCell>
        <mxCell id="tnVQdqbwVG9CSOU1aEH5-3" value="" style="rounded=0;whiteSpace=wrap;html=1;" vertex="1" parent="1">
          <mxGeometry x="150" y="460" width="170" height="190" as="geometry" />
        </mxCell>
        <mxCell id="tnVQdqbwVG9CSOU1aEH5-4" value="작업 디렉토리" style="text;html=1;strokeColor=none;fillColor=none;align=center;verticalAlign=middle;whiteSpace=wrap;rounded=0;" vertex="1" parent="1">
          <mxGeometry x="150" y="430" width="90" height="30" as="geometry" />
        </mxCell>
        <mxCell id="tnVQdqbwVG9CSOU1aEH5-5" value="" style="rounded=1;whiteSpace=wrap;html=1;" vertex="1" parent="1">
          <mxGeometry x="354" y="400" width="120" height="60" as="geometry" />
        </mxCell>
        <mxCell id="tnVQdqbwVG9CSOU1aEH5-6" value="저장소(repository)" style="text;html=1;strokeColor=none;fillColor=none;align=center;verticalAlign=middle;whiteSpace=wrap;rounded=0;" vertex="1" parent="1">
          <mxGeometry x="474" y="190" width="60" height="30" as="geometry" />
        </mxCell>
        <mxCell id="tnVQdqbwVG9CSOU1aEH5-7" value="스테이지(stage)" style="text;html=1;strokeColor=none;fillColor=none;align=center;verticalAlign=middle;whiteSpace=wrap;rounded=0;" vertex="1" parent="1">
          <mxGeometry x="354" y="370" width="60" height="30" as="geometry" />
        </mxCell>
        <mxCell id="tnVQdqbwVG9CSOU1aEH5-8" value="" style="shape=cylinder3;whiteSpace=wrap;html=1;boundedLbl=1;backgroundOutline=1;size=15;" vertex="1" parent="1">
          <mxGeometry x="474" y="230" width="150" height="140" as="geometry" />
        </mxCell>
        <mxCell id="tnVQdqbwVG9CSOU1aEH5-9" value=".git" style="text;html=1;strokeColor=none;fillColor=none;align=center;verticalAlign=middle;whiteSpace=wrap;rounded=0;" vertex="1" parent="1">
          <mxGeometry x="160" y="470" width="60" height="30" as="geometry" />
        </mxCell>
        <mxCell id="tnVQdqbwVG9CSOU1aEH5-10" value="" style="endArrow=classic;html=1;rounded=0;exitX=0.994;exitY=0.795;exitDx=0;exitDy=0;exitPerimeter=0;" edge="1" parent="1" source="tnVQdqbwVG9CSOU1aEH5-3">
          <mxGeometry width="50" height="50" relative="1" as="geometry">
            <mxPoint x="337" y="610" as="sourcePoint" />
            <mxPoint x="431" y="460" as="targetPoint" />
            <Array as="points">
              <mxPoint x="431" y="610" />
            </Array>
          </mxGeometry>
        </mxCell>
        <mxCell id="tnVQdqbwVG9CSOU1aEH5-12" value="" style="endArrow=classic;html=1;rounded=0;exitX=0.35;exitY=0.967;exitDx=0;exitDy=0;exitPerimeter=0;entryX=1.029;entryY=0.668;entryDx=0;entryDy=0;entryPerimeter=0;" edge="1" parent="1" target="tnVQdqbwVG9CSOU1aEH5-3">
          <mxGeometry width="50" height="50" relative="1" as="geometry">
            <mxPoint x="414" y="460" as="sourcePoint" />
            <mxPoint x="340.03999999999996" y="591.94" as="targetPoint" />
            <Array as="points">
              <mxPoint x="414" y="587" />
            </Array>
          </mxGeometry>
        </mxCell>
        <mxCell id="tnVQdqbwVG9CSOU1aEH5-13" value="스테이지에 올리기" style="text;html=1;strokeColor=none;fillColor=none;align=center;verticalAlign=middle;whiteSpace=wrap;rounded=0;" vertex="1" parent="1">
          <mxGeometry x="340" y="620" width="110" height="30" as="geometry" />
        </mxCell>
        <mxCell id="tnVQdqbwVG9CSOU1aEH5-14" value="스테이지에서&lt;br&gt;내리기" style="text;html=1;strokeColor=none;fillColor=none;align=center;verticalAlign=middle;whiteSpace=wrap;rounded=0;" vertex="1" parent="1">
          <mxGeometry x="330" y="540" width="80" height="30" as="geometry" />
        </mxCell>
        <mxCell id="tnVQdqbwVG9CSOU1aEH5-17" value="" style="endArrow=classic;html=1;rounded=0;entryX=0.855;entryY=1;entryDx=0;entryDy=-4.35;entryPerimeter=0;exitX=0.992;exitY=0.65;exitDx=0;exitDy=0;exitPerimeter=0;" edge="1" parent="1" source="tnVQdqbwVG9CSOU1aEH5-5" target="tnVQdqbwVG9CSOU1aEH5-8">
          <mxGeometry width="50" height="50" relative="1" as="geometry">
            <mxPoint x="390" y="430" as="sourcePoint" />
            <mxPoint x="440" y="380" as="targetPoint" />
            <Array as="points">
              <mxPoint x="602" y="440" />
            </Array>
          </mxGeometry>
        </mxCell>
        <mxCell id="tnVQdqbwVG9CSOU1aEH5-18" value="" style="endArrow=classic;html=1;rounded=0;exitX=0.72;exitY=1.021;exitDx=0;exitDy=0;exitPerimeter=0;entryX=1;entryY=0.367;entryDx=0;entryDy=0;entryPerimeter=0;" edge="1" parent="1" source="tnVQdqbwVG9CSOU1aEH5-8" target="tnVQdqbwVG9CSOU1aEH5-5">
          <mxGeometry width="50" height="50" relative="1" as="geometry">
            <mxPoint x="390" y="430" as="sourcePoint" />
            <mxPoint x="440" y="380" as="targetPoint" />
            <Array as="points">
              <mxPoint x="582" y="422" />
            </Array>
          </mxGeometry>
        </mxCell>
        <mxCell id="tnVQdqbwVG9CSOU1aEH5-19" value="커밋" style="text;html=1;strokeColor=none;fillColor=none;align=center;verticalAlign=middle;whiteSpace=wrap;rounded=0;" vertex="1" parent="1">
          <mxGeometry x="540" y="440" width="60" height="30" as="geometry" />
        </mxCell>
        <mxCell id="tnVQdqbwVG9CSOU1aEH5-20" value="revert / reset" style="text;html=1;strokeColor=none;fillColor=none;align=center;verticalAlign=middle;whiteSpace=wrap;rounded=0;" vertex="1" parent="1">
          <mxGeometry x="510" y="390" width="60" height="30" as="geometry" />
        </mxCell>
        <mxCell id="tnVQdqbwVG9CSOU1aEH5-21" value="" style="endArrow=classic;html=1;rounded=0;entryX=1;entryY=0.75;entryDx=0;entryDy=0;exitX=0.133;exitY=1;exitDx=0;exitDy=0;exitPerimeter=0;" edge="1" parent="1" source="tnVQdqbwVG9CSOU1aEH5-20" target="tnVQdqbwVG9CSOU1aEH5-3">
          <mxGeometry width="50" height="50" relative="1" as="geometry">
            <mxPoint x="490" y="430" as="sourcePoint" />
            <mxPoint x="440" y="380" as="targetPoint" />
            <Array as="points">
              <mxPoint x="520" y="603" />
            </Array>
          </mxGeometry>
        </mxCell>
      </root>
    </mxGraphModel>
  </diagram>
</mxfile>
